<svg width="22" height="22" viewBox="0 0 22 22" fill="none" xmlns="http://www.w3.org/2000/svg">
<path d="M1 5C1 3.93913 1.42143 2.92172 2.17157 2.17157C2.92172 1.42143 3.93913 1 5 1H17C18.0609 1 19.0783 1.42143 19.8284 2.17157C20.5786 2.92172 21 3.93913 21 5V17C21 18.0609 20.5786 19.0783 19.8284 19.8284C19.0783 20.5786 18.0609 21 17 21H5C3.93913 21 2.92172 20.5786 2.17157 19.8284C1.42143 19.0783 1 18.0609 1 17V5Z" stroke="white" stroke-width="2" stroke-linecap="round" stroke-linejoin="round"/>
<path d="M8 15.5002V7.78025C8.00001 7.55732 8.0745 7.34078 8.21166 7.16504C8.34881 6.98929 8.54075 6.86442 8.757 6.81025L14.757 5.31025C14.9044 5.27331 15.0584 5.27047 15.2071 5.30195C15.3558 5.33343 15.4954 5.3984 15.6152 5.49191C15.735 5.58543 15.832 5.70503 15.8987 5.84163C15.9653 5.97824 16 6.12824 16 6.28025V14.0002" stroke="white" stroke-width="2" stroke-linecap="round" stroke-linejoin="round"/>
<path d="M8 10L16 8" stroke="white" stroke-width="2"/>
<path d="M6.5 17C7.32843 17 8 16.3284 8 15.5C8 14.6716 7.32843 14 6.5 14C5.67157 14 5 14.6716 5 15.5C5 16.3284 5.67157 17 6.5 17Z" stroke="white" stroke-width="2"/>
<path d="M14.5 16C15.3284 16 16 15.3284 16 14.5C16 13.6716 15.3284 13 14.5 13C13.6716 13 13 13.6716 13 14.5C13 15.3284 13.6716 16 14.5 16Z" stroke="white" stroke-width="2"/>
</svg>
